<?xml version="1.0" encoding="utf-8"?>
<!-- Generator: Adobe Illustrator 16.0.0, SVG Export Plug-In . SVG Version: 6.00 Build 0)  -->
<!DOCTYPE svg PUBLIC "-//W3C//DTD SVG 1.1//EN" "http://www.w3.org/Graphics/SVG/1.1/DTD/svg11.dtd">
<svg version="1.1" id="Layer_1" xmlns="http://www.w3.org/2000/svg" xmlns:xlink="http://www.w3.org/1999/xlink" x="0px" y="0px"
	 width="212.956px" height="192.085px" viewBox="0 0 212.956 192.085" enable-background="new 0 0 212.956 192.085"
	 xml:space="preserve">
<g>
	<defs>
		<filter id="Adobe_OpacityMaskFilter" filterUnits="userSpaceOnUse" x="0" y="169.026" width="212.957" height="30.801">
			<feColorMatrix  type="matrix" values="1 0 0 0 0  0 1 0 0 0  0 0 1 0 0  0 0 0 1 0"/>
		</filter>
	</defs>
	<mask maskUnits="userSpaceOnUse" x="0" y="169.026" width="212.957" height="30.801" id="SVGID_1_">
		<g filter="url(#Adobe_OpacityMaskFilter)">
			
				<radialGradient id="SVGID_2_" cx="1046.8467" cy="2865.1113" r="64.4438" gradientTransform="matrix(-1.6526 0.0029 0.0124 -0.2389 1800.9707 865.8656)" gradientUnits="userSpaceOnUse">
				<stop  offset="0" style="stop-color:#FFFFFF"/>
				<stop  offset="0.0138" style="stop-color:#FBFBFB"/>
				<stop  offset="0.2172" style="stop-color:#9D9596"/>
				<stop  offset="0.4118" style="stop-color:#605A5A"/>
				<stop  offset="0.5925" style="stop-color:#3E3937"/>
				<stop  offset="0.7562" style="stop-color:#262321"/>
				<stop  offset="0.8974" style="stop-color:#131211"/>
				<stop  offset="1" style="stop-color:#050306"/>
			</radialGradient>
			<path fill="url(#SVGID_2_)" d="M0.004,184.622c0.502-8.496,48.548-15.488,107.366-15.595
				c58.79-0.102,106.029,6.713,105.583,15.22c-0.222,8.498-48.341,15.472-107.229,15.579C46.82,199.923-0.555,193.125,0.004,184.622
				z"/>
		</g>
	</mask>
	<path mask="url(#SVGID_1_)" fill="#030104" d="M0.004,184.622c0.502-8.496,48.548-15.488,107.366-15.595
		c58.79-0.102,106.029,6.713,105.583,15.22c-0.222,8.498-48.341,15.472-107.229,15.579C46.82,199.923-0.555,193.125,0.004,184.622z"
		/>
	<circle fill="#EBEBEA" cx="106.478" cy="95.902" r="95.902"/>
	<radialGradient id="SVGID_3_" cx="159.1714" cy="36.8848" r="137.3791" gradientUnits="userSpaceOnUse">
		<stop  offset="0.073" style="stop-color:#80B8B6"/>
		<stop  offset="0.2625" style="stop-color:#7CB5B6"/>
		<stop  offset="0.5315" style="stop-color:#6FA9B6"/>
		<stop  offset="0.8468" style="stop-color:#5995B2"/>
		<stop  offset="0.9282" style="stop-color:#518FB1"/>
	</radialGradient>
	<path fill="url(#SVGID_3_)" d="M195.003,95.902c0,48.889-39.636,88.524-88.525,88.524s-88.525-39.636-88.525-88.524
		c0-12.962,2.782-25.272,7.788-36.358C39.61,28.792,70.552,7.377,106.478,7.377s66.868,21.415,80.736,52.167
		C192.22,70.63,195.003,82.939,195.003,95.902z"/>
	<path opacity="0.1" fill="#FFFFFF" d="M187.214,59.543c-13.868,30.752-44.81,52.166-80.736,52.166S39.61,90.295,25.741,59.543
		C39.61,28.792,70.552,7.377,106.478,7.377S173.346,28.792,187.214,59.543z"/>
	<path fill="#FFFFFF" d="M143,73.947c0,0,7.201-5.831,7.773-10.63c0,0-4.917,3.543-12.233,4.687c0,0-6.743-8.345-19.317-5.373
		c-12.574,2.972-15.203,17.031-13.716,22.633c0,0-21.833,0.343-39.665-19.89c0,0-8.687,14.518,6.287,25.719
		c0,0-7.185-0.457-8.792-2.286c0,0-0.695,15.203,15.651,18.975c0,0-3.887,1.372-8.916,0.8c0,0,4.229,12.573,18.06,12.917
		c0,0-12.573,10.402-28.805,8.116c0,0,17.103,12.602,40.458,7.619c1.113-0.238,2.24-0.515,3.381-0.835
		c14.8-4.498,27.602-14.1,34.693-28.016c0.469-0.903,0.927-1.839,1.364-2.809c3.075-6.783,5.284-15.161,4.805-24.883
		c0,0,7.314-5.143,9.601-9.715C153.629,70.975,148.941,73.147,143,73.947z"/>
</g>
</svg>
